<svg version="1.1" xmlns="http://www.w3.org/2000/svg" viewBox="0 0 51 39" style="enable-background:new 0 0 51 39;" xml:space="preserve">
	<style type="text/css">
	.st0{fill:#F3EDCF;stroke:#1B4D7A;}
	.st1{fill-rule:evenodd;clip-rule:evenodd;fill:#1B4D7A;}
	.st2{fill:#1B4D7A;}
	.st3{fill:#FFFFFF;stroke:#1B4D7A;}
	.st4{fill:#EF6461;}
</style>
	<path class="st0" d="M12.5,20.5c0.3-9.4,8-17,17.5-17s17.2,7.6,17.5,17H12.5z"/>
	<path class="st1" d="M29.5,8c0-0.3,0.2-0.5,0.5-0.5c7.5,0,13.5,6,13.5,13.5c0,0.3-0.2,0.5-0.5,0.5s-0.5-0.2-0.5-0.5
	c0-6.9-5.6-12.5-12.5-12.5C29.7,8.5,29.5,8.3,29.5,8z"/>
	<path class="st2" d="M26.1,28.5l-5.6,3.1c-0.1,0-0.2,0.1-0.3,0.1h-1.6c-0.3-2.3-2.2-3.4-4.2-3.3c-2.3,0.1-3.6-0.7-4-1
	c-1.3-1-3.2-0.8-5.4,0.8V27c0-0.6-0.5-1.1-1.1-1.1h-3C0.5,25.9,0,26.4,0,27v11C0,38.5,0.5,39,1.1,39h3c0.6,0,1.1-0.5,1.1-1.1v-0.6
	h6.8c0,0,0,0,0.1,0l8.8-1.2c0.2,0,0.4-0.1,0.6-0.2l6.8-4.2c0.8-0.6,1-1.8,0.4-2.6C28.1,28.2,27,28,26.1,28.5z M1,37.9V27h3
	c0,4.3,0,7,0,11H1z M27.6,30.8L20.9,35c-0.1,0-0.1,0.1-0.2,0.1l-8.8,1.2H5.1v-6.9c1-0.8,3.3-2.4,4.7-1.3c0.5,0.4,2.1,1.4,4.8,1.3
	c2.1,0,2.9,0.9,3.1,2.2h-7.4c-0.3,0-0.5,0.2-0.5,0.5c0,0.3,0.2,0.5,0.5,0.5c3.4,0,6.4,0,10.1,0c0.3,0,0.5-0.1,0.8-0.2l5.6-3.1
	c0.4-0.2,0.9-0.1,1.1,0.3C28,30,28,30.6,27.6,30.8z"/>
	<path class="st3" d="M10.8,20.5h38.5c0.7,0,1.2,0.6,1.2,1.2l0,0c0,0.7-0.6,1.2-1.2,1.2H10.8c-0.7,0-1.2-0.6-1.2-1.2l0,0
	C9.5,21.1,10.1,20.5,10.8,20.5z"/>
	<path class="st4" d="M1,27h3.1v10.9H1V27z"/>
	<path class="st1" d="M28,0.5C28,0.8,28.2,1,28.5,1H30v3h1V1h1.5C32.8,1,33,0.8,33,0.5S32.8,0,32.5,0h-4C28.2,0,28,0.2,28,0.5z"/>
</svg>
