<svg xmlns="http://www.w3.org/2000/svg" viewBox="0 0 34 37" style="enable-background:new 0 0 34 37;" xml:space="preserve">
	<style type="text/css">
	.st0{fill:#1B4D7A;}
	.st1{fill:#F3EDCF;stroke:#1B4D7A;stroke-width:1.25;}
	.st2{fill:#FFFFFF;stroke:#1B4D7A;stroke-width:1.25;}
	.st3{fill:#EF6461;stroke:#1B4D7A;}
</style>
	<path class="st0" d="M16.1,0h1.2v4.6h-1.2V0z"/>
	<path class="st0" d="M19.9,0c0.4,0,0.8,0.3,0.8,0.6l0,0c0,0.3-0.4,0.6-0.8,0.6h-6.4c-0.4,0-0.8-0.3-0.8-0.6l0,0
	C12.7,0.3,13,0,13.5,0L19.9,0z"/>
	<path class="st0" d="M16.1,0h1.2v4.6h-1.2V0z"/>
	<path class="st0" d="M19.9,0c0.4,0,0.8,0.3,0.8,0.6l0,0c0,0.3-0.4,0.6-0.8,0.6h-6.4c-0.4,0-0.8-0.3-0.8-0.6l0,0
	C12.7,0.3,13,0,13.5,0L19.9,0z"/>
	<circle class="st1" cx="16.7" cy="20.1" r="16.1"/>
	<circle class="st2" cx="16.7" cy="20.1" r="11.5"/>
	<path class="st0" d="M16.1,11.5c0-0.3,0.3-0.6,0.6-0.6l0,0c0.3,0,0.6,0.3,0.6,0.6v6.3c0,0.3-0.3,0.6-0.6,0.6l0,0
	c-0.3,0-0.6-0.3-0.6-0.6V11.5z"/>
	<path class="st0" d="M24.8,24c0.3,0.2,0.4,0.5,0.2,0.8l0,0c-0.2,0.3-0.5,0.4-0.8,0.2l-5.3-3c-0.3-0.2-0.4-0.5-0.2-0.8l0,0
	c0.2-0.3,0.5-0.4,0.8-0.2L24.8,24z"/>
	<path class="st0" d="M16.1,29.3c0-0.3,0.3-0.6,0.6-0.6l0,0c0.3,0,0.6,0.3,0.6,0.6v2.3c0,0.3-0.3,0.6-0.6,0.6l0,0
	c-0.3,0-0.6-0.3-0.6-0.6V29.3z"/>
	<path class="st0" d="M7.5,19.6c0.3,0,0.6,0.3,0.6,0.6l0,0c0,0.3-0.3,0.6-0.6,0.6H5.2c-0.3,0-0.6-0.3-0.6-0.6l0,0
	c0-0.3,0.3-0.6,0.6-0.6H7.5z"/>
	<circle class="st3" cx="16.7" cy="20.1" r="2.4"/>
</svg>
